{"title":"Magic Magic (2013) DVDRip XViD AC3 juggs","uid":8786487,"size":1477435572,"categoryP":"video","categoryS":"movies","magnet":"?xt=urn:btih:162188fe96a1da69bdf0fd7bcdb69d42666483eb&amp;dn=Magic+Magic+%282013%29+DVDRip+XViD+AC3+juggs&amp;tr=udp%3A%2F%2Ftracker.openbittorrent.com%3A80&amp;tr=udp%3A%2F%2Fopen.demonii.com%3A1337&amp;tr=udp%3A%2F%2Ftracker.coppersurfer.tk%3A6969&amp;tr=udp%3A%2F%2Fexodus.desync.com%3A6969","seeders":1,"leechers":0,"uploader":"juggs99","files":4,"time":1375837634,"description":" &lt;a href=&quot;http://www.imdb.com/title/tt1929308/&quot; rel=&quot;nofollow&quot; target=&quot;_NEW&quot;&gt;http://www.imdb.com/title/tt1929308/&lt;/a&gt;\n\nSource : DVD9 / NTSC (Thanks)\n\nFormat : AVI\nFormat/Info : Audio Video Interleave\nFile size : 1.35 GiB\nDuration : 1h 38mn\nOverall bit rate : 1 969 Kbps\nWriting library : VirtualDub build 32842/release\n\nVideo\nID : 0\nFormat : MPEG-4 Visual\nFormat profile : Advanced Simple@L5\nFormat settings, BVOP : 2\nFormat settings, QPel : No\nFormat settings, GMC : No warppoints\nFormat settings, Matrix : Default (H.263)\nMuxing mode : Packed bitstream\nCodec ID : XVID\nCodec ID/Hint : XviD\nDuration : 1h 38mn\nBit rate : 1 512 Kbps\nWidth : 720 pixels\nHeight : 304 pixels\nDisplay aspect ratio : 2.35:1\nFrame rate : 23.976 fps\nColor space : YUV\nChroma subsampling : 4:2:0\nBit depth : 8 bits\nScan type : Progressive\nCompression mode : Lossy\nBits/(Pixel*Frame) : 0.288\nStream size : 1.04 GiB (77%)\nWriting library : XviD 1.2.1 (UTC 2008-12-04)\n\nAudio\nID : 1\nFormat : AC-3\nFormat/Info : Audio Coding 3\nMode extension : CM (complete main)\nFormat settings, Endianness : Big\nCodec ID : 2000\nDuration : 1h 38mn\nBit rate mode : Constant\nBit rate : 448 Kbps\nChannel(s) : 6 channels\nChannel positions : Front: L C R, Side: L R, LFE\nSampling rate : 48.0 KHz\nBit depth : 16 bits\nCompression mode : Lossy\nStream size : 314 MiB (23%)\nAlignment : Aligned on interleaves\nInterleave, duration : 42 ms (1.00 video frame)\nInterleave, preload duration : 512 ms\n &lt;a href=&quot;\nhttp://www.shotpix.com/photos/20130806137582854165312.png&quot; rel=&quot;nofollow&quot; target=&quot;_NEW&quot;&gt;\nhttp://www.shotpix.com/photos/20130806137582854165312.png&lt;/a&gt; &lt;a href=&quot;\nhttp://www.shotpix.com/photos/20130806137582854137067.png&quot; rel=&quot;nofollow&quot; target=&quot;_NEW&quot;&gt;\nhttp://www.shotpix.com/photos/20130806137582854137067.png&lt;/a&gt; &lt;a href=&quot;\nhttp://www.shotpix.com/photos/20130806137582854989775.png&quot; rel=&quot;nofollow&quot; target=&quot;_NEW&quot;&gt;\nhttp://www.shotpix.com/photos/20130806137582854989775.png&lt;/a&gt;","torrent":{"xt":"urn:btih:162188fe96a1da69bdf0fd7bcdb69d42666483eb","amp;dn":"Magic+Magic+%282013%29+DVDRip+XViD+AC3+juggs","amp;tr":["udp%3A%2F%2Ftracker.openbittorrent.com%3A80","udp%3A%2F%2Fopen.demonii.com%3A1337","udp%3A%2F%2Ftracker.coppersurfer.tk%3A6969","udp%3A%2F%2Fexodus.desync.com%3A6969"],"infoHash":"162188fe96a1da69bdf0fd7bcdb69d42666483eb","infoHashBuffer":{"type":"Buffer","data":[22,33,136,254,150,161,218,105,189,240,253,123,205,182,157,66,102,100,131,235]},"announce":[],"urlList":[]}}